# xmcd
#
# Track frame offsets:
#	150
#	17730
#	33516
#	49537
#	71575
#	89666
#	107009
#	121902
#	142864
#	155638
#	173969
#	188209
#	203009
#	217052
#
# Disc length: 3088 seconds
#
# Revision: 0
# Processed by: cddbd v1.5.2PL0 Copyright (c) Steve Scherf et al.
# Submitted via: EasyCDDAExtractor 12.0.7.1
#
DISCID=c50c0e0e
DTITLE=Nikos Zoidakis - Analambano tin efthini
DYEAR=1900
DGENRE=
TTITLE0=Mia nyxta mono
TTITLE1=Analambano tin efthini
TTITLE2=Ena giati
TTITLE3=H xontrolia
TTITLE4=Ston topo pou xorisame
TTITLE5=Pos ponane oi nyxtes
TTITLE6=O mikros stratiotis
TTITLE7=H mantinada tou feggariou (live)
TTITLE8=Ta pio glyka mou oneira
TTITLE9=Fevgo ap' to spiti
TTITLE10=Na apatas ton erasti
TTITLE11=Mono oi filoi
TTITLE12=Mou 'pe o giatros
TTITLE13=Yperboles
EXTD=
EXTT0=
EXTT1=
EXTT2=
EXTT3=
EXTT4=
EXTT5=
EXTT6=
EXTT7=
EXTT8=
EXTT9=
EXTT10=
EXTT11=
EXTT12=
EXTT13=
PLAYORDER=
